<?xml version="1.0" encoding="utf-8" ?>
<svg baseProfile="full" height="100%" preserveAspectRatio="center middle slice" version="1.1" viewBox="-100 0 1200 510" width="100%" xmlns="http://www.w3.org/2000/svg" xmlns:ev="http://www.w3.org/2001/xml-events" xmlns:xlink="http://www.w3.org/1999/xlink"><defs /><line stroke="limegreen" stroke-width="2" x1="0.0" x2="35.7781598807" y1="89.267578125" y2="89.267578125" /><line stroke="black" stroke-width="0.5" x1="35.7781598807" x2="35.7781598807" y1="15.0" y2="163.53515625" /><line stroke="darkgrey" stroke-width="2" x1="35.7781598807" x2="93.1301978202" y1="15.0" y2="15.0" /><line stroke="darkgrey" stroke-width="2" x1="93.1301978202" x2="142.491217399" y1="15.0" y2="15" /><circle cx="142.491217399" cy="15" fill="rgb(202,70,120)" r="2" stroke="rgb(202,70,120)" stroke-opacity="255" /><text font-size="8" x="145.491217399" y="18">10.89</text><circle cx="132.651336748" cy="15.0" fill="rgb(202,70,120)" r="2" stroke="rgb(202,70,120)" stroke-opacity="255" /><circle cx="124.303934788" cy="15.0" fill="rgb(250,213,36)" r="2" stroke="rgb(250,213,36)" stroke-opacity="255" /><circle cx="112.08920519" cy="15.0" fill="rgb(240,245,37)" r="2" stroke="rgb(240,245,37)" stroke-opacity="255" /><circle cx="93.1301978202" cy="15.0" fill="rgb(240,246,35)" r="2" stroke="rgb(240,246,35)" stroke-opacity="255" /><line stroke="lightblue" stroke-width="2" x1="35.7781598807" x2="97.4429455249" y1="163.53515625" y2="163.53515625" /><line stroke="lightblue" stroke-width="2" x1="97.4429455249" x2="200.132404773" y1="163.53515625" y2="163.53515625" /><line stroke="black" stroke-width="0.5" x1="200.132404773" x2="200.132404773" y1="30.0" y2="297.0703125" /><line stroke="lightblue" stroke-width="2" x1="200.132404773" x2="226.872950234" y1="30.0" y2="30.0" /><line stroke="lightblue" stroke-width="2" x1="226.872950234" x2="524.925987282" y1="30.0" y2="30" /><circle cx="524.925987282" cy="30" fill="rgb(202,70,120)" r="2" stroke="rgb(202,70,120)" stroke-opacity="255" /><text font-size="8" x="527.925987282" y="33">40.12</text><circle cx="510.69918087" cy="30.0" fill="rgb(202,70,120)" r="2" stroke="rgb(202,70,120)" stroke-opacity="255" /><circle cx="479.662602413" cy="30.0" fill="rgb(197,64,125)" r="2" stroke="rgb(197,64,125)" stroke-opacity="255" /><circle cx="448.858467824" cy="30.0" fill="rgb(193,60,128)" r="2" stroke="rgb(193,60,128)" stroke-opacity="255" /><circle cx="427.28734907" cy="30.0" fill="rgb(192,59,129)" r="2" stroke="rgb(192,59,129)" stroke-opacity="255" /><circle cx="399.071289809" cy="30.0" fill="rgb(194,61,128)" r="2" stroke="rgb(194,61,128)" stroke-opacity="255" /><circle cx="371.817561228" cy="30.0" fill="rgb(200,68,122)" r="2" stroke="rgb(200,68,122)" stroke-opacity="255" /><circle cx="366.829464422" cy="30.0" fill="rgb(201,69,121)" r="2" stroke="rgb(201,69,121)" stroke-opacity="255" /><circle cx="340.066785238" cy="30.0" fill="rgb(209,79,113)" r="2" stroke="rgb(209,79,113)" stroke-opacity="255" /><circle cx="330.677980584" cy="30.0" fill="rgb(213,83,109)" r="2" stroke="rgb(213,83,109)" stroke-opacity="255" /><circle cx="300.529723841" cy="30.0" fill="rgb(204,72,118)" r="2" stroke="rgb(204,72,118)" stroke-opacity="255" /><circle cx="291.667844161" cy="30.0" fill="rgb(189,55,132)" r="2" stroke="rgb(189,55,132)" stroke-opacity="255" /><circle cx="264.790443547" cy="30.0" fill="rgb(169,35,149)" r="2" stroke="rgb(169,35,149)" stroke-opacity="255" /><circle cx="226.872950234" cy="30.0" fill="rgb(240,246,35)" r="2" stroke="rgb(240,246,35)" stroke-opacity="255" /><line stroke="lightblue" stroke-width="2" x1="200.132404773" x2="213.728691013" y1="297.0703125" y2="297.0703125" /><line stroke="black" stroke-width="0.5" x1="213.728691013" x2="213.728691013" y1="234.140625" y2="360.0" /><line stroke="lightblue" stroke-width="2" x1="213.728691013" x2="254.000009855" y1="234.140625" y2="234.140625" /><line stroke="lightblue" stroke-width="2" x1="254.000009855" x2="293.037226425" y1="234.140625" y2="234.140625" /><line stroke="black" stroke-width="0.5" x1="293.037226425" x2="293.037226425" y1="183.28125" y2="285.0" /><line stroke="lightblue" stroke-width="2" x1="293.037226425" x2="309.617354687" y1="183.28125" y2="183.28125" /><line stroke="black" stroke-width="0.5" x1="309.617354687" x2="309.617354687" y1="96.5625" y2="270.0" /><line stroke="lightblue" stroke-width="2" x1="309.617354687" x2="357.290179218" y1="96.5625" y2="96.5625" /><line stroke="black" stroke-width="0.5" x1="357.290179218" x2="357.290179218" y1="45.0" y2="148.125" /><line stroke="lightblue" stroke-width="2" x1="357.290179218" x2="367.575218946" y1="45.0" y2="45.0" /><line stroke="lightblue" stroke-width="2" x1="367.575218946" x2="398.121297136" y1="45.0" y2="45" /><circle cx="398.121297136" cy="45" fill="rgb(202,70,120)" r="2" stroke="rgb(202,70,120)" stroke-opacity="255" /><text font-size="8" x="401.121297136" y="48">30.43</text><circle cx="388.475793235" cy="45.0" fill="rgb(202,70,120)" r="2" stroke="rgb(202,70,120)" stroke-opacity="255" /><circle cx="379.187743641" cy="45.0" fill="rgb(16,7,135)" r="2" stroke="rgb(16,7,135)" stroke-opacity="255" /><circle cx="367.575218946" cy="45.0" fill="rgb(12,7,134)" r="2" stroke="rgb(12,7,134)" stroke-opacity="255" /><line stroke="lightblue" stroke-width="2" x1="357.290179218" x2="380.298278135" y1="60.0" y2="60.0" /><line stroke="lightblue" stroke-width="2" x1="380.298278135" x2="536.610173113" y1="60.0" y2="60" /><circle cx="536.610173113" cy="60" fill="rgb(202,70,120)" r="2" stroke="rgb(202,70,120)" stroke-opacity="255" /><text font-size="8" x="539.610173113" y="63">41.01</text><circle cx="509.146506707" cy="60.0" fill="rgb(202,70,120)" r="2" stroke="rgb(202,70,120)" stroke-opacity="255" /><circle cx="502.091523149" cy="60.0" fill="rgb(240,246,35)" r="2" stroke="rgb(240,246,35)" stroke-opacity="255" /><circle cx="488.125422181" cy="60.0" fill="rgb(37,5,145)" r="2" stroke="rgb(37,5,145)" stroke-opacity="255" /><circle cx="474.406435278" cy="60.0" fill="rgb(12,7,134)" r="2" stroke="rgb(12,7,134)" stroke-opacity="255" /><circle cx="457.635704152" cy="60.0" fill="rgb(228,106,93)" r="2" stroke="rgb(228,106,93)" stroke-opacity="255" /><circle cx="442.500087624" cy="60.0" fill="rgb(246,145,66)" r="2" stroke="rgb(246,145,66)" stroke-opacity="255" /><circle cx="410.338738811" cy="60.0" fill="rgb(238,124,80)" r="2" stroke="rgb(238,124,80)" stroke-opacity="255" /><circle cx="391.867689918" cy="60.0" fill="rgb(213,83,109)" r="2" stroke="rgb(213,83,109)" stroke-opacity="255" /><circle cx="380.298278135" cy="60.0" fill="rgb(193,60,128)" r="2" stroke="rgb(193,60,128)" stroke-opacity="255" /><line stroke="lightblue" stroke-width="2" x1="357.290179218" x2="369.523099485" y1="148.125" y2="148.125" /><line stroke="lightblue" stroke-width="2" x1="369.523099485" x2="512.143146201" y1="148.125" y2="148.125" /><line stroke="black" stroke-width="0.5" x1="512.143146201" x2="512.143146201" y1="82.5" y2="213.75" /><line stroke="lightblue" stroke-width="2" x1="512.143146201" x2="547.453449775" y1="82.5" y2="82.5" /><line stroke="lightblue" stroke-width="2" x1="547.453449775" x2="690.854329844" y1="82.5" y2="82.5" /><line stroke="black" stroke-width="0.5" x1="690.854329844" x2="690.854329844" y1="75.0" y2="90" /><line stroke="lightblue" stroke-width="2" x1="690.854329844" x2="707.138587051" y1="75.0" y2="75.0" /><line stroke="lightblue" stroke-width="2" x1="707.138587051" x2="863.677514012" y1="75.0" y2="75" /><circle cx="863.677514012" cy="75" fill="rgb(202,70,120)" r="2" stroke="rgb(202,70,120)" stroke-opacity="255" /><text font-size="8" x="866.677514012" y="78">66.01</text><circle cx="856.63911878" cy="75.0" fill="rgb(202,70,120)" r="2" stroke="rgb(202,70,120)" stroke-opacity="255" /><circle cx="843.452267534" cy="75.0" fill="rgb(199,66,123)" r="2" stroke="rgb(199,66,123)" stroke-opacity="255" /><circle cx="820.218393651" cy="75.0" fill="rgb(207,75,116)" r="2" stroke="rgb(207,75,116)" stroke-opacity="255" /><circle cx="804.001130849" cy="75.0" fill="rgb(210,80,112)" r="2" stroke="rgb(210,80,112)" stroke-opacity="255" /><circle cx="796.22039966" cy="75.0" fill="rgb(211,81,111)" r="2" stroke="rgb(211,81,111)" stroke-opacity="255" /><circle cx="781.352828003" cy="75.0" fill="rgb(212,82,110)" r="2" stroke="rgb(212,82,110)" stroke-opacity="255" /><circle cx="753.263398103" cy="75.0" fill="rgb(210,80,112)" r="2" stroke="rgb(210,80,112)" stroke-opacity="255" /><circle cx="739.27658124" cy="75.0" fill="rgb(208,77,115)" r="2" stroke="rgb(208,77,115)" stroke-opacity="255" /><circle cx="732.89970828" cy="75.0" fill="rgb(206,74,117)" r="2" stroke="rgb(206,74,117)" stroke-opacity="255" /><circle cx="722.724004137" cy="75.0" fill="rgb(203,71,119)" r="2" stroke="rgb(203,71,119)" stroke-opacity="255" /><circle cx="707.138587051" cy="75.0" fill="rgb(196,63,126)" r="2" stroke="rgb(196,63,126)" stroke-opacity="255" /><line stroke="lightblue" stroke-width="2" x1="690.854329844" x2="718.440235593" y1="90" y2="90" /><circle cx="718.440235593" cy="90" fill="rgb(202,70,120)" r="2" stroke="rgb(202,70,120)" stroke-opacity="255" /><text font-size="8" x="721.440235593" y="93">54.91</text><circle cx="690.854329844" cy="82.5" fill="rgb(202,70,120)" r="2" stroke="rgb(202,70,120)" stroke-opacity="255" /><text font-size="6" x="693.854329844" y="82.5">52.80</text><circle cx="680.649731667" cy="82.5" fill="rgb(182,47,139)" r="2" stroke="rgb(182,47,139)" stroke-opacity="255" /><circle cx="670.398846981" cy="82.5" fill="rgb(177,43,143)" r="2" stroke="rgb(177,43,143)" stroke-opacity="255" /><circle cx="659.521645199" cy="82.5" fill="rgb(188,54,133)" r="2" stroke="rgb(188,54,133)" stroke-opacity="255" /><circle cx="644.649705636" cy="82.5" fill="rgb(209,78,114)" r="2" stroke="rgb(209,78,114)" stroke-opacity="255" /><circle cx="640.215713705" cy="82.5" fill="rgb(212,82,110)" r="2" stroke="rgb(212,82,110)" stroke-opacity="255" /><circle cx="633.9325392" cy="82.5" fill="rgb(189,55,132)" r="2" stroke="rgb(189,55,132)" stroke-opacity="255" /><circle cx="626.662966249" cy="82.5" fill="rgb(196,63,126)" r="2" stroke="rgb(196,63,126)" stroke-opacity="255" /><circle cx="619.428461058" cy="82.5" fill="rgb(205,73,117)" r="2" stroke="rgb(205,73,117)" stroke-opacity="255" /><circle cx="607.699081758" cy="82.5" fill="rgb(220,93,102)" r="2" stroke="rgb(220,93,102)" stroke-opacity="255" /><circle cx="587.620308197" cy="82.5" fill="rgb(220,94,102)" r="2" stroke="rgb(220,94,102)" stroke-opacity="255" /><circle cx="563.417373854" cy="82.5" fill="rgb(253,188,42)" r="2" stroke="rgb(253,188,42)" stroke-opacity="255" /><circle cx="547.453449775" cy="82.5" fill="rgb(247,226,37)" r="2" stroke="rgb(247,226,37)" stroke-opacity="255" /><line stroke="lightblue" stroke-width="2" x1="512.143146201" x2="550.191964963" y1="150.0" y2="150.0" /><line stroke="lightblue" stroke-width="2" x1="550.191964963" x2="738.915577441" y1="150.0" y2="150.0" /><line stroke="black" stroke-width="0.5" x1="738.915577441" x2="738.915577441" y1="135.0" y2="165" /><line stroke="lightblue" stroke-width="2" x1="738.915577441" x2="776.839452212" y1="135.0" y2="135.0" /><line stroke="lightblue" stroke-width="2" x1="776.839452212" x2="920.973848957" y1="135.0" y2="135.0" /><line stroke="black" stroke-width="0.5" x1="920.973848957" x2="920.973848957" y1="120.0" y2="150.0" /><line stroke="lightblue" stroke-width="2" x1="920.973848957" x2="937.848689438" y1="120.0" y2="120.0" /><line stroke="black" stroke-width="0.5" x1="937.848689438" x2="937.848689438" y1="105.0" y2="135" /><line stroke="lightblue" stroke-width="2" x1="937.848689438" x2="954.448731369" y1="105.0" y2="105.0" /><line stroke="lightblue" stroke-width="2" x1="954.448731369" x2="963.084678886" y1="105.0" y2="105" /><circle cx="963.084678886" cy="105" fill="rgb(202,70,120)" r="2" stroke="rgb(202,70,120)" stroke-opacity="255" /><text font-size="8" x="966.084678886" y="108">73.60</text><circle cx="954.448731369" cy="105.0" fill="rgb(202,70,120)" r="2" stroke="rgb(202,70,120)" stroke-opacity="255" /><line stroke="lightblue" stroke-width="2" x1="937.848689438" x2="951.815259467" y1="120.0" y2="120.0" /><line stroke="lightblue" stroke-width="2" x1="951.815259467" x2="1000.0" y1="120.0" y2="120" /><circle cx="1000.0" cy="120" fill="rgb(202,70,120)" r="2" stroke="rgb(202,70,120)" stroke-opacity="255" /><text font-size="8" x="1003.0" y="123">76.43</text><circle cx="987.410523249" cy="120.0" fill="rgb(202,70,120)" r="2" stroke="rgb(202,70,120)" stroke-opacity="255" /><circle cx="976.684120716" cy="120.0" fill="rgb(175,40,144)" r="2" stroke="rgb(175,40,144)" stroke-opacity="255" /><circle cx="965.208511025" cy="120.0" fill="rgb(247,224,36)" r="2" stroke="rgb(247,224,36)" stroke-opacity="255" /><circle cx="960.305188013" cy="120.0" fill="rgb(245,233,38)" r="2" stroke="rgb(245,233,38)" stroke-opacity="255" /><circle cx="951.815259467" cy="120.0" fill="rgb(245,233,38)" r="2" stroke="rgb(245,233,38)" stroke-opacity="255" /><line stroke="lightblue" stroke-width="2" x1="937.848689438" x2="950.093105548" y1="135" y2="135" /><circle cx="950.093105548" cy="135" fill="rgb(202,70,120)" r="2" stroke="rgb(202,70,120)" stroke-opacity="255" /><text font-size="8" x="953.093105548" y="138">72.61</text><circle cx="937.848689438" cy="120.0" fill="rgb(202,70,120)" r="2" stroke="rgb(202,70,120)" stroke-opacity="255" /><text font-size="6" x="940.848689438" y="120.0">71.68</text><line stroke="lightblue" stroke-width="2" x1="920.973848957" x2="934.421410272" y1="150.0" y2="150.0" /><line stroke="lightblue" stroke-width="2" x1="934.421410272" x2="944.872469194" y1="150.0" y2="150" /><circle cx="944.872469194" cy="150" fill="rgb(202,70,120)" r="2" stroke="rgb(202,70,120)" stroke-opacity="255" /><text font-size="8" x="947.872469194" y="153">72.21</text><circle cx="934.421410272" cy="150.0" fill="rgb(202,70,120)" r="2" stroke="rgb(202,70,120)" stroke-opacity="255" /><circle cx="920.973848957" cy="135.0" fill="rgb(222,96,100)" r="2" stroke="rgb(222,96,100)" stroke-opacity="255" /><text font-size="6" x="923.973848957" y="135.0">70.39</text><circle cx="902.767092556" cy="135.0" fill="rgb(181,46,140)" r="2" stroke="rgb(181,46,140)" stroke-opacity="255" /><circle cx="889.851834895" cy="135.0" fill="rgb(114,0,168)" r="2" stroke="rgb(114,0,168)" stroke-opacity="255" /><circle cx="877.338082507" cy="135.0" fill="rgb(61,3,155)" r="2" stroke="rgb(61,3,155)" stroke-opacity="255" /><circle cx="855.913678707" cy="135.0" fill="rgb(205,73,117)" r="2" stroke="rgb(205,73,117)" stroke-opacity="255" /><circle cx="850.784908153" cy="135.0" fill="rgb(233,114,87)" r="2" stroke="rgb(233,114,87)" stroke-opacity="255" /><circle cx="840.127154501" cy="135.0" fill="rgb(249,153,61)" r="2" stroke="rgb(249,153,61)" stroke-opacity="255" /><circle cx="818.80774279" cy="135.0" fill="rgb(233,114,87)" r="2" stroke="rgb(233,114,87)" stroke-opacity="255" /><circle cx="809.929659173" cy="135.0" fill="rgb(223,98,98)" r="2" stroke="rgb(223,98,98)" stroke-opacity="255" /><circle cx="789.466226534" cy="135.0" fill="rgb(202,70,120)" r="2" stroke="rgb(202,70,120)" stroke-opacity="255" /><circle cx="776.839452212" cy="135.0" fill="rgb(205,73,117)" r="2" stroke="rgb(205,73,117)" stroke-opacity="255" /><line stroke="lightblue" stroke-width="2" x1="738.915577441" x2="745.495349267" y1="165" y2="165" /><circle cx="745.495349267" cy="165" fill="rgb(202,70,120)" r="2" stroke="rgb(202,70,120)" stroke-opacity="255" /><text font-size="8" x="748.495349267" y="168">56.97</text><circle cx="738.915577441" cy="150.0" fill="rgb(202,70,120)" r="2" stroke="rgb(202,70,120)" stroke-opacity="255" /><text font-size="6" x="741.915577441" y="150.0">56.47</text><circle cx="717.642233636" cy="150.0" fill="rgb(202,70,120)" r="2" stroke="rgb(202,70,120)" stroke-opacity="255" /><circle cx="706.329172701" cy="150.0" fill="rgb(200,68,122)" r="2" stroke="rgb(200,68,122)" stroke-opacity="255" /><circle cx="689.649956693" cy="150.0" fill="rgb(213,83,109)" r="2" stroke="rgb(213,83,109)" stroke-opacity="255" /><circle cx="672.970240616" cy="150.0" fill="rgb(217,89,105)" r="2" stroke="rgb(217,89,105)" stroke-opacity="255" /><circle cx="662.537350143" cy="150.0" fill="rgb(211,81,111)" r="2" stroke="rgb(211,81,111)" stroke-opacity="255" /><circle cx="652.553379483" cy="150.0" fill="rgb(201,69,121)" r="2" stroke="rgb(201,69,121)" stroke-opacity="255" /><circle cx="633.47009928" cy="150.0" fill="rgb(202,70,120)" r="2" stroke="rgb(202,70,120)" stroke-opacity="255" /><circle cx="620.875196018" cy="150.0" fill="rgb(202,70,120)" r="2" stroke="rgb(202,70,120)" stroke-opacity="255" /><circle cx="603.51167605" cy="150.0" fill="rgb(217,89,105)" r="2" stroke="rgb(217,89,105)" stroke-opacity="255" /><circle cx="597.11766181" cy="150.0" fill="rgb(227,104,94)" r="2" stroke="rgb(227,104,94)" stroke-opacity="255" /><circle cx="572.174397611" cy="150.0" fill="rgb(253,182,45)" r="2" stroke="rgb(253,182,45)" stroke-opacity="255" /><circle cx="550.191964963" cy="150.0" fill="rgb(243,135,72)" r="2" stroke="rgb(243,135,72)" stroke-opacity="255" /><line stroke="lightblue" stroke-width="2" x1="512.143146201" x2="536.479403459" y1="213.75" y2="213.75" /><line stroke="black" stroke-width="0.5" x1="536.479403459" x2="536.479403459" y1="180" y2="247.5" /><line stroke="lightblue" stroke-width="2" x1="536.479403459" x2="551.518163325" y1="180" y2="180" /><circle cx="551.518163325" cy="180" fill="rgb(202,70,120)" r="2" stroke="rgb(202,70,120)" stroke-opacity="255" /><text font-size="8" x="554.518163325" y="183">42.15</text><line stroke="lightblue" stroke-width="2" x1="536.479403459" x2="559.50463265" y1="213.75" y2="213.75" /><line stroke="lightblue" stroke-width="2" x1="559.50463265" x2="765.230806287" y1="213.75" y2="213.75" /><line stroke="black" stroke-width="0.5" x1="765.230806287" x2="765.230806287" y1="202.5" y2="225" /><line stroke="lightblue" stroke-width="2" x1="765.230806287" x2="780.460321779" y1="202.5" y2="202.5" /><line stroke="lightblue" stroke-width="2" x1="780.460321779" x2="790.310314608" y1="202.5" y2="202.5" /><line stroke="black" stroke-width="0.5" x1="790.310314608" x2="790.310314608" y1="195" y2="210" /><line stroke="lightblue" stroke-width="2" x1="790.310314608" x2="827.987384511" y1="195" y2="195" /><circle cx="827.987384511" cy="195" fill="rgb(202,70,120)" r="2" stroke="rgb(202,70,120)" stroke-opacity="255" /><text font-size="8" x="830.987384511" y="198">63.28</text><line stroke="lightblue" stroke-width="2" x1="790.310314608" x2="808.845769925" y1="210" y2="210" /><circle cx="808.845769925" cy="210" fill="rgb(202,70,120)" r="2" stroke="rgb(202,70,120)" stroke-opacity="255" /><text font-size="8" x="811.845769925" y="213">61.82</text><circle cx="790.310314608" cy="202.5" fill="rgb(202,70,120)" r="2" stroke="rgb(202,70,120)" stroke-opacity="255" /><text font-size="6" x="793.310314608" y="202.5">60.40</text><circle cx="780.460321779" cy="202.5" fill="rgb(144,14,163)" r="2" stroke="rgb(144,14,163)" stroke-opacity="255" /><line stroke="lightblue" stroke-width="2" x1="765.230806287" x2="774.543672592" y1="225" y2="225" /><circle cx="774.543672592" cy="225" fill="rgb(202,70,120)" r="2" stroke="rgb(202,70,120)" stroke-opacity="255" /><text font-size="8" x="777.543672592" y="228">59.19</text><circle cx="765.230806287" cy="213.75" fill="rgb(202,70,120)" r="2" stroke="rgb(202,70,120)" stroke-opacity="255" /><text font-size="6" x="768.230806287" y="213.75">58.48</text><circle cx="758.559441644" cy="213.75" fill="rgb(205,73,117)" r="2" stroke="rgb(205,73,117)" stroke-opacity="255" /><circle cx="742.634023171" cy="213.75" fill="rgb(210,80,112)" r="2" stroke="rgb(210,80,112)" stroke-opacity="255" /><circle cx="732.12025151" cy="213.75" fill="rgb(232,113,88)" r="2" stroke="rgb(232,113,88)" stroke-opacity="255" /><circle cx="721.155290379" cy="213.75" fill="rgb(235,118,84)" r="2" stroke="rgb(235,118,84)" stroke-opacity="255" /><circle cx="711.468246473" cy="213.75" fill="rgb(234,115,86)" r="2" stroke="rgb(234,115,86)" stroke-opacity="255" /><circle cx="701.860278245" cy="213.75" fill="rgb(229,108,91)" r="2" stroke="rgb(229,108,91)" stroke-opacity="255" /><circle cx="692.252310018" cy="213.75" fill="rgb(209,79,113)" r="2" stroke="rgb(209,79,113)" stroke-opacity="255" /><circle cx="675.682279831" cy="213.75" fill="rgb(195,62,127)" r="2" stroke="rgb(195,62,127)" stroke-opacity="255" /><circle cx="665.105273261" cy="213.75" fill="rgb(167,33,151)" r="2" stroke="rgb(167,33,151)" stroke-opacity="255" /><circle cx="656.247885433" cy="213.75" fill="rgb(163,29,153)" r="2" stroke="rgb(163,29,153)" stroke-opacity="255" /><circle cx="623.061721946" cy="213.75" fill="rgb(202,70,120)" r="2" stroke="rgb(202,70,120)" stroke-opacity="255" /><circle cx="616.330418732" cy="213.75" fill="rgb(214,85,109)" r="2" stroke="rgb(214,85,109)" stroke-opacity="255" /><circle cx="604.798749339" cy="213.75" fill="rgb(233,114,87)" r="2" stroke="rgb(233,114,87)" stroke-opacity="255" /><circle cx="597.250016647" cy="213.75" fill="rgb(243,134,73)" r="2" stroke="rgb(243,134,73)" stroke-opacity="255" /><circle cx="591.45525776" cy="213.75" fill="rgb(244,137,71)" r="2" stroke="rgb(244,137,71)" stroke-opacity="255" /><circle cx="577.995760689" cy="213.75" fill="rgb(244,137,71)" r="2" stroke="rgb(244,137,71)" stroke-opacity="255" /><circle cx="559.50463265" cy="213.75" fill="rgb(252,167,53)" r="2" stroke="rgb(252,167,53)" stroke-opacity="255" /><line stroke="lightblue" stroke-width="2" x1="536.479403459" x2="560.216435006" y1="247.5" y2="247.5" /><line stroke="lightblue" stroke-width="2" x1="560.216435006" x2="748.217448936" y1="247.5" y2="247.5" /><line stroke="black" stroke-width="0.5" x1="748.217448936" x2="748.217448936" y1="240.0" y2="255.0" /><line stroke="lightblue" stroke-width="2" x1="748.217448936" x2="763.073130101" y1="240.0" y2="240.0" /><line stroke="lightblue" stroke-width="2" x1="763.073130101" x2="879.469228572" y1="240.0" y2="240" /><circle cx="879.469228572" cy="240" fill="rgb(202,70,120)" r="2" stroke="rgb(202,70,120)" stroke-opacity="255" /><text font-size="8" x="882.469228572" y="243">67.21</text><circle cx="867.755308861" cy="240.0" fill="rgb(202,70,120)" r="2" stroke="rgb(202,70,120)" stroke-opacity="255" /><circle cx="827.172420929" cy="240.0" fill="rgb(174,39,145)" r="2" stroke="rgb(174,39,145)" stroke-opacity="255" /><circle cx="819.862923465" cy="240.0" fill="rgb(184,50,137)" r="2" stroke="rgb(184,50,137)" stroke-opacity="255" /><circle cx="789.650512176" cy="240.0" fill="rgb(248,149,64)" r="2" stroke="rgb(248,149,64)" stroke-opacity="255" /><circle cx="776.984725483" cy="240.0" fill="rgb(232,112,89)" r="2" stroke="rgb(232,112,89)" stroke-opacity="255" /><circle cx="763.073130101" cy="240.0" fill="rgb(164,30,152)" r="2" stroke="rgb(164,30,152)" stroke-opacity="255" /><line stroke="lightblue" stroke-width="2" x1="748.217448936" x2="764.241996107" y1="255.0" y2="255.0" /><line stroke="lightblue" stroke-width="2" x1="764.241996107" x2="773.143006947" y1="255.0" y2="255" /><circle cx="773.143006947" cy="255" fill="rgb(202,70,120)" r="2" stroke="rgb(202,70,120)" stroke-opacity="255" /><text font-size="8" x="776.143006947" y="258">59.09</text><circle cx="764.241996107" cy="255.0" fill="rgb(202,70,120)" r="2" stroke="rgb(202,70,120)" stroke-opacity="255" /><circle cx="748.217448936" cy="247.5" fill="rgb(130,4,167)" r="2" stroke="rgb(130,4,167)" stroke-opacity="255" /><text font-size="6" x="751.217448936" y="247.5">57.18</text><circle cx="733.383763823" cy="247.5" fill="rgb(211,81,111)" r="2" stroke="rgb(211,81,111)" stroke-opacity="255" /><circle cx="715.200244655" cy="247.5" fill="rgb(196,63,126)" r="2" stroke="rgb(196,63,126)" stroke-opacity="255" /><circle cx="703.324509389" cy="247.5" fill="rgb(211,81,111)" r="2" stroke="rgb(211,81,111)" stroke-opacity="255" /><circle cx="691.176778698" cy="247.5" fill="rgb(215,87,107)" r="2" stroke="rgb(215,87,107)" stroke-opacity="255" /><circle cx="683.268986238" cy="247.5" fill="rgb(212,82,110)" r="2" stroke="rgb(212,82,110)" stroke-opacity="255" /><circle cx="666.904691799" cy="247.5" fill="rgb(207,75,116)" r="2" stroke="rgb(207,75,116)" stroke-opacity="255" /><circle cx="653.52558403" cy="247.5" fill="rgb(207,75,116)" r="2" stroke="rgb(207,75,116)" stroke-opacity="255" /><circle cx="630.210342043" cy="247.5" fill="rgb(210,80,112)" r="2" stroke="rgb(210,80,112)" stroke-opacity="255" /><circle cx="606.172579674" cy="247.5" fill="rgb(225,101,96)" r="2" stroke="rgb(225,101,96)" stroke-opacity="255" /><circle cx="595.040379151" cy="247.5" fill="rgb(235,118,84)" r="2" stroke="rgb(235,118,84)" stroke-opacity="255" /><circle cx="584.057145615" cy="247.5" fill="rgb(245,139,70)" r="2" stroke="rgb(245,139,70)" stroke-opacity="255" /><circle cx="560.216435006" cy="247.5" fill="rgb(253,176,48)" r="2" stroke="rgb(253,176,48)" stroke-opacity="255" /><circle cx="536.479403459" cy="213.75" fill="rgb(202,70,120)" r="2" stroke="rgb(202,70,120)" stroke-opacity="255" /><text font-size="6" x="539.479403459" y="213.75">41.00</text><circle cx="512.143146201" cy="148.125" fill="rgb(16,7,135)" r="2" stroke="rgb(16,7,135)" stroke-opacity="255" /><text font-size="6" x="515.143146201" y="148.125">39.14</text><circle cx="470.771429341" cy="148.125" fill="rgb(252,203,37)" r="2" stroke="rgb(252,203,37)" stroke-opacity="255" /><circle cx="457.897329941" cy="148.125" fill="rgb(250,157,58)" r="2" stroke="rgb(250,157,58)" stroke-opacity="255" /><circle cx="427.717523402" cy="148.125" fill="rgb(206,74,117)" r="2" stroke="rgb(206,74,117)" stroke-opacity="255" /><circle cx="411.243672969" cy="148.125" fill="rgb(209,79,113)" r="2" stroke="rgb(209,79,113)" stroke-opacity="255" /><circle cx="404.23000251" cy="148.125" fill="rgb(219,91,103)" r="2" stroke="rgb(219,91,103)" stroke-opacity="255" /><circle cx="394.629543786" cy="148.125" fill="rgb(229,108,91)" r="2" stroke="rgb(229,108,91)" stroke-opacity="255" /><circle cx="369.523099485" cy="148.125" fill="rgb(204,72,118)" r="2" stroke="rgb(204,72,118)" stroke-opacity="255" /><circle cx="357.290179218" cy="96.5625" fill="rgb(191,57,130)" r="2" stroke="rgb(191,57,130)" stroke-opacity="255" /><text font-size="6" x="360.290179218" y="96.5625">27.31</text><line stroke="lightblue" stroke-width="2" x1="309.617354687" x2="322.745409958" y1="270.0" y2="270.0" /><line stroke="lightblue" stroke-width="2" x1="322.745409958" x2="509.378686727" y1="270.0" y2="270" /><circle cx="509.378686727" cy="270" fill="rgb(202,70,120)" r="2" stroke="rgb(202,70,120)" stroke-opacity="255" /><text font-size="8" x="512.378686727" y="273">38.93</text><circle cx="497.706180352" cy="270.0" fill="rgb(202,70,120)" r="2" stroke="rgb(202,70,120)" stroke-opacity="255" /><circle cx="489.617417839" cy="270.0" fill="rgb(240,128,77)" r="2" stroke="rgb(240,128,77)" stroke-opacity="255" /><circle cx="474.69595379" cy="270.0" fill="rgb(228,106,93)" r="2" stroke="rgb(228,106,93)" stroke-opacity="255" /><circle cx="463.768612395" cy="270.0" fill="rgb(219,91,103)" r="2" stroke="rgb(219,91,103)" stroke-opacity="255" /><circle cx="451.003114084" cy="270.0" fill="rgb(207,75,116)" r="2" stroke="rgb(207,75,116)" stroke-opacity="255" /><circle cx="437.361273511" cy="270.0" fill="rgb(194,61,128)" r="2" stroke="rgb(194,61,128)" stroke-opacity="255" /><circle cx="424.674058369" cy="270.0" fill="rgb(183,48,138)" r="2" stroke="rgb(183,48,138)" stroke-opacity="255" /><circle cx="412.223760501" cy="270.0" fill="rgb(174,39,145)" r="2" stroke="rgb(174,39,145)" stroke-opacity="255" /><circle cx="394.809704342" cy="270.0" fill="rgb(186,52,135)" r="2" stroke="rgb(186,52,135)" stroke-opacity="255" /><circle cx="378.890709377" cy="270.0" fill="rgb(223,97,99)" r="2" stroke="rgb(223,97,99)" stroke-opacity="255" /><circle cx="368.389393811" cy="270.0" fill="rgb(245,139,70)" r="2" stroke="rgb(245,139,70)" stroke-opacity="255" /><circle cx="359.03380955" cy="270.0" fill="rgb(246,145,66)" r="2" stroke="rgb(246,145,66)" stroke-opacity="255" /><circle cx="344.698545774" cy="270.0" fill="rgb(200,68,122)" r="2" stroke="rgb(200,68,122)" stroke-opacity="255" /><circle cx="332.591012506" cy="270.0" fill="rgb(97,0,166)" r="2" stroke="rgb(97,0,166)" stroke-opacity="255" /><circle cx="322.745409958" cy="270.0" fill="rgb(82,1,163)" r="2" stroke="rgb(82,1,163)" stroke-opacity="255" /><circle cx="309.617354687" cy="183.28125" fill="rgb(198,65,124)" r="2" stroke="rgb(198,65,124)" stroke-opacity="255" /><text font-size="6" x="312.617354687" y="183.28125">23.66</text><line stroke="lightblue" stroke-width="2" x1="293.037226425" x2="320.279090432" y1="285.0" y2="285.0" /><line stroke="lightblue" stroke-width="2" x1="320.279090432" x2="408.002254787" y1="285.0" y2="285" /><circle cx="408.002254787" cy="285" fill="rgb(202,70,120)" r="2" stroke="rgb(202,70,120)" stroke-opacity="255" /><text font-size="8" x="411.002254787" y="288">31.18</text><circle cx="388.620359611" cy="285.0" fill="rgb(202,70,120)" r="2" stroke="rgb(202,70,120)" stroke-opacity="255" /><circle cx="373.557424384" cy="285.0" fill="rgb(253,190,41)" r="2" stroke="rgb(253,190,41)" stroke-opacity="255" /><circle cx="365.729871933" cy="285.0" fill="rgb(243,134,73)" r="2" stroke="rgb(243,134,73)" stroke-opacity="255" /><circle cx="350.669376306" cy="285.0" fill="rgb(186,52,135)" r="2" stroke="rgb(186,52,135)" stroke-opacity="255" /><circle cx="344.995137122" cy="285.0" fill="rgb(173,38,146)" r="2" stroke="rgb(173,38,146)" stroke-opacity="255" /><circle cx="337.303252499" cy="285.0" fill="rgb(167,33,151)" r="2" stroke="rgb(167,33,151)" stroke-opacity="255" /><circle cx="334.319556816" cy="285.0" fill="rgb(169,35,149)" r="2" stroke="rgb(169,35,149)" stroke-opacity="255" /><circle cx="320.279090432" cy="285.0" fill="rgb(188,54,133)" r="2" stroke="rgb(188,54,133)" stroke-opacity="255" /><circle cx="293.037226425" cy="234.140625" fill="rgb(206,74,117)" r="2" stroke="rgb(206,74,117)" stroke-opacity="255" /><text font-size="6" x="296.037226425" y="234.140625">22.40</text><circle cx="287.900138161" cy="234.140625" fill="rgb(235,118,84)" r="2" stroke="rgb(235,118,84)" stroke-opacity="255" /><circle cx="278.432332337" cy="234.140625" fill="rgb(252,169,52)" r="2" stroke="rgb(252,169,52)" stroke-opacity="255" /><circle cx="270.011566621" cy="234.140625" fill="rgb(253,193,40)" r="2" stroke="rgb(253,193,40)" stroke-opacity="255" /><circle cx="254.000009855" cy="234.140625" fill="rgb(247,224,36)" r="2" stroke="rgb(247,224,36)" stroke-opacity="255" /><line stroke="lightblue" stroke-width="2" x1="213.728691013" x2="263.426330034" y1="360.0" y2="360.0" /><line stroke="lightblue" stroke-width="2" x1="263.426330034" x2="631.763070349" y1="360.0" y2="360.0" /><line stroke="black" stroke-width="0.5" x1="631.763070349" x2="631.763070349" y1="300.0" y2="420.0" /><line stroke="lightblue" stroke-width="2" x1="631.763070349" x2="703.844860672" y1="300.0" y2="300.0" /><line stroke="lightblue" stroke-width="2" x1="703.844860672" x2="812.764406578" y1="300.0" y2="300" /><circle cx="812.764406578" cy="300" fill="rgb(202,70,120)" r="2" stroke="rgb(202,70,120)" stroke-opacity="255" /><text font-size="8" x="815.764406578" y="303">62.12</text><circle cx="807.223856043" cy="300.0" fill="rgb(202,70,120)" r="2" stroke="rgb(202,70,120)" stroke-opacity="255" /><circle cx="793.323789634" cy="300.0" fill="rgb(243,236,38)" r="2" stroke="rgb(243,236,38)" stroke-opacity="255" /><circle cx="789.065422545" cy="300.0" fill="rgb(251,208,36)" r="2" stroke="rgb(251,208,36)" stroke-opacity="255" /><circle cx="780.711426088" cy="300.0" fill="rgb(204,72,118)" r="2" stroke="rgb(204,72,118)" stroke-opacity="255" /><circle cx="772.805354536" cy="300.0" fill="rgb(106,0,167)" r="2" stroke="rgb(106,0,167)" stroke-opacity="255" /><circle cx="756.986024478" cy="300.0" fill="rgb(69,3,158)" r="2" stroke="rgb(69,3,158)" stroke-opacity="255" /><circle cx="740.509614818" cy="300.0" fill="rgb(181,46,140)" r="2" stroke="rgb(181,46,140)" stroke-opacity="255" /><circle cx="732.530252511" cy="300.0" fill="rgb(242,133,74)" r="2" stroke="rgb(242,133,74)" stroke-opacity="255" /><circle cx="703.844860672" cy="300.0" fill="rgb(253,195,40)" r="2" stroke="rgb(253,195,40)" stroke-opacity="255" /><line stroke="lightblue" stroke-width="2" x1="631.763070349" x2="672.825480646" y1="322.5" y2="322.5" /><line stroke="lightblue" stroke-width="2" x1="672.825480646" x2="818.028725155" y1="322.5" y2="322.5" /><line stroke="black" stroke-width="0.5" x1="818.028725155" x2="818.028725155" y1="315" y2="330.0" /><line stroke="lightblue" stroke-width="2" x1="818.028725155" x2="829.579615391" y1="315" y2="315" /><circle cx="829.579615391" cy="315" fill="rgb(202,70,120)" r="2" stroke="rgb(202,70,120)" stroke-opacity="255" /><text font-size="8" x="832.579615391" y="318">63.40</text><line stroke="lightblue" stroke-width="2" x1="818.028725155" x2="831.618934113" y1="330.0" y2="330.0" /><line stroke="lightblue" stroke-width="2" x1="831.618934113" x2="850.502188154" y1="330.0" y2="330" /><circle cx="850.502188154" cy="330" fill="rgb(202,70,120)" r="2" stroke="rgb(202,70,120)" stroke-opacity="255" /><text font-size="8" x="853.502188154" y="333">65.00</text><circle cx="842.510517607" cy="330.0" fill="rgb(202,70,120)" r="2" stroke="rgb(202,70,120)" stroke-opacity="255" /><circle cx="831.618934113" cy="330.0" fill="rgb(241,130,76)" r="2" stroke="rgb(241,130,76)" stroke-opacity="255" /><circle cx="818.028725155" cy="322.5" fill="rgb(202,70,120)" r="2" stroke="rgb(202,70,120)" stroke-opacity="255" /><text font-size="6" x="821.028725155" y="322.5">62.52</text><circle cx="780.152991802" cy="322.5" fill="rgb(52,4,152)" r="2" stroke="rgb(52,4,152)" stroke-opacity="255" /><circle cx="735.960168061" cy="322.5" fill="rgb(253,196,39)" r="2" stroke="rgb(253,196,39)" stroke-opacity="255" /><circle cx="710.57217161" cy="322.5" fill="rgb(165,31,151)" r="2" stroke="rgb(165,31,151)" stroke-opacity="255" /><circle cx="688.720124907" cy="322.5" fill="rgb(244,137,71)" r="2" stroke="rgb(244,137,71)" stroke-opacity="255" /><circle cx="672.825480646" cy="322.5" fill="rgb(252,170,51)" r="2" stroke="rgb(252,170,51)" stroke-opacity="255" /><line stroke="lightblue" stroke-width="2" x1="631.763070349" x2="661.406788147" y1="345" y2="345" /><circle cx="661.406788147" cy="345" fill="rgb(202,70,120)" r="2" stroke="rgb(202,70,120)" stroke-opacity="255" /><text font-size="8" x="664.406788147" y="348">50.55</text><line stroke="lightblue" stroke-width="2" x1="631.763070349" x2="657.49352828" y1="420.0" y2="420.0" /><line stroke="black" stroke-width="0.5" x1="657.49352828" x2="657.49352828" y1="367.5" y2="472.5" /><line stroke="lightblue" stroke-width="2" x1="657.49352828" x2="677.495500491" y1="367.5" y2="367.5" /><line stroke="lightblue" stroke-width="2" x1="677.495500491" x2="788.644862557" y1="367.5" y2="367.5" /><line stroke="black" stroke-width="0.5" x1="788.644862557" x2="788.644862557" y1="360.0" y2="375" /><line stroke="lightblue" stroke-width="2" x1="788.644862557" x2="804.638314629" y1="360.0" y2="360.0" /><line stroke="lightblue" stroke-width="2" x1="804.638314629" x2="815.210027306" y1="360.0" y2="360" /><circle cx="815.210027306" cy="360" fill="rgb(202,70,120)" r="2" stroke="rgb(202,70,120)" stroke-opacity="255" /><text font-size="8" x="818.210027306" y="363">62.30</text><circle cx="804.638314629" cy="360.0" fill="rgb(202,70,120)" r="2" stroke="rgb(202,70,120)" stroke-opacity="255" /><line stroke="lightblue" stroke-width="2" x1="788.644862557" x2="804.007268956" y1="375" y2="375" /><circle cx="804.007268956" cy="375" fill="rgb(202,70,120)" r="2" stroke="rgb(202,70,120)" stroke-opacity="255" /><text font-size="8" x="807.007268956" y="378">61.45</text><circle cx="788.644862557" cy="367.5" fill="rgb(202,70,120)" r="2" stroke="rgb(202,70,120)" stroke-opacity="255" /><text font-size="6" x="791.644862557" y="367.5">60.27</text><circle cx="775.757715266" cy="367.5" fill="rgb(203,71,119)" r="2" stroke="rgb(203,71,119)" stroke-opacity="255" /><circle cx="761.892424609" cy="367.5" fill="rgb(249,154,60)" r="2" stroke="rgb(249,154,60)" stroke-opacity="255" /><circle cx="756.873760636" cy="367.5" fill="rgb(252,172,50)" r="2" stroke="rgb(252,172,50)" stroke-opacity="255" /><circle cx="742.577450895" cy="367.5" fill="rgb(253,178,47)" r="2" stroke="rgb(253,178,47)" stroke-opacity="255" /><circle cx="724.536060941" cy="367.5" fill="rgb(221,95,101)" r="2" stroke="rgb(221,95,101)" stroke-opacity="255" /><circle cx="704.244363391" cy="367.5" fill="rgb(86,1,163)" r="2" stroke="rgb(86,1,163)" stroke-opacity="255" /><circle cx="690.031356567" cy="367.5" fill="rgb(163,29,153)" r="2" stroke="rgb(163,29,153)" stroke-opacity="255" /><circle cx="677.495500491" cy="367.5" fill="rgb(242,240,38)" r="2" stroke="rgb(242,240,38)" stroke-opacity="255" /><line stroke="lightblue" stroke-width="2" x1="657.49352828" x2="691.631913495" y1="390" y2="390" /><circle cx="691.631913495" cy="390" fill="rgb(202,70,120)" r="2" stroke="rgb(202,70,120)" stroke-opacity="255" /><text font-size="8" x="694.631913495" y="393">52.86</text><line stroke="lightblue" stroke-width="2" x1="657.49352828" x2="701.426338914" y1="412.5" y2="412.5" /><line stroke="lightblue" stroke-width="2" x1="701.426338914" x2="830.27248049" y1="412.5" y2="412.5" /><line stroke="black" stroke-width="0.5" x1="830.27248049" x2="830.27248049" y1="405.0" y2="420.0" /><line stroke="lightblue" stroke-width="2" x1="830.27248049" x2="841.888924882" y1="405.0" y2="405.0" /><line stroke="lightblue" stroke-width="2" x1="841.888924882" x2="848.560007954" y1="405.0" y2="405" /><circle cx="848.560007954" cy="405" fill="rgb(202,70,120)" r="2" stroke="rgb(202,70,120)" stroke-opacity="255" /><text font-size="8" x="851.560007954" y="408">64.85</text><circle cx="841.888924882" cy="405.0" fill="rgb(202,70,120)" r="2" stroke="rgb(202,70,120)" stroke-opacity="255" /><line stroke="lightblue" stroke-width="2" x1="830.27248049" x2="838.002587477" y1="420.0" y2="420.0" /><line stroke="lightblue" stroke-width="2" x1="838.002587477" x2="870.201071548" y1="420.0" y2="420" /><circle cx="870.201071548" cy="420" fill="rgb(202,70,120)" r="2" stroke="rgb(202,70,120)" stroke-opacity="255" /><text font-size="8" x="873.201071548" y="423">66.51</text><circle cx="860.581493118" cy="420.0" fill="rgb(202,70,120)" r="2" stroke="rgb(202,70,120)" stroke-opacity="255" /><circle cx="853.397903114" cy="420.0" fill="rgb(240,246,35)" r="2" stroke="rgb(240,246,35)" stroke-opacity="255" /><circle cx="838.002587477" cy="420.0" fill="rgb(12,7,134)" r="2" stroke="rgb(12,7,134)" stroke-opacity="255" /><circle cx="830.27248049" cy="412.5" fill="rgb(58,4,154)" r="2" stroke="rgb(58,4,154)" stroke-opacity="255" /><text font-size="6" x="833.27248049" y="412.5">63.45</text><circle cx="820.859631417" cy="412.5" fill="rgb(246,228,37)" r="2" stroke="rgb(246,228,37)" stroke-opacity="255" /><circle cx="810.312339686" cy="412.5" fill="rgb(252,201,38)" r="2" stroke="rgb(252,201,38)" stroke-opacity="255" /><circle cx="803.456860222" cy="412.5" fill="rgb(248,149,64)" r="2" stroke="rgb(248,149,64)" stroke-opacity="255" /><circle cx="792.72297375" cy="412.5" fill="rgb(197,64,125)" r="2" stroke="rgb(197,64,125)" stroke-opacity="255" /><circle cx="779.271220238" cy="412.5" fill="rgb(206,74,117)" r="2" stroke="rgb(206,74,117)" stroke-opacity="255" /><circle cx="764.862956179" cy="412.5" fill="rgb(230,109,90)" r="2" stroke="rgb(230,109,90)" stroke-opacity="255" /><circle cx="748.423450522" cy="412.5" fill="rgb(235,118,84)" r="2" stroke="rgb(235,118,84)" stroke-opacity="255" /><circle cx="738.20895848" cy="412.5" fill="rgb(229,107,92)" r="2" stroke="rgb(229,107,92)" stroke-opacity="255" /><circle cx="725.686383576" cy="412.5" fill="rgb(215,87,107)" r="2" stroke="rgb(215,87,107)" stroke-opacity="255" /><circle cx="701.426338914" cy="412.5" fill="rgb(189,55,132)" r="2" stroke="rgb(189,55,132)" stroke-opacity="255" /><line stroke="lightblue" stroke-width="2" x1="657.49352828" x2="673.470520118" y1="472.5" y2="472.5" /><line stroke="lightblue" stroke-width="2" x1="673.470520118" x2="749.993639306" y1="472.5" y2="472.5" /><line stroke="black" stroke-width="0.5" x1="749.993639306" x2="749.993639306" y1="435.0" y2="510.0" /><line stroke="lightblue" stroke-width="2" x1="749.993639306" x2="762.803428633" y1="435.0" y2="435.0" /><line stroke="lightblue" stroke-width="2" x1="762.803428633" x2="789.407242509" y1="435.0" y2="435" /><circle cx="789.407242509" cy="435" fill="rgb(202,70,120)" r="2" stroke="rgb(202,70,120)" stroke-opacity="255" /><text font-size="8" x="792.407242509" y="438">60.33</text><circle cx="774.049467386" cy="435.0" fill="rgb(202,70,120)" r="2" stroke="rgb(202,70,120)" stroke-opacity="255" /><circle cx="762.803428633" cy="435.0" fill="rgb(253,190,41)" r="2" stroke="rgb(253,190,41)" stroke-opacity="255" /><line stroke="lightblue" stroke-width="2" x1="749.993639306" x2="775.00302988" y1="450.0" y2="450.0" /><line stroke="lightblue" stroke-width="2" x1="775.00302988" x2="792.410933329" y1="450.0" y2="450" /><circle cx="792.410933329" cy="450" fill="rgb(202,70,120)" r="2" stroke="rgb(202,70,120)" stroke-opacity="255" /><text font-size="8" x="795.410933329" y="453">60.56</text><circle cx="775.00302988" cy="450.0" fill="rgb(202,70,120)" r="2" stroke="rgb(202,70,120)" stroke-opacity="255" /><line stroke="lightblue" stroke-width="2" x1="749.993639306" x2="766.418835304" y1="480.0" y2="480.0" /><line stroke="black" stroke-width="0.5" x1="766.418835304" x2="766.418835304" y1="465" y2="495.0" /><line stroke="lightblue" stroke-width="2" x1="766.418835304" x2="779.986244559" y1="465" y2="465" /><circle cx="779.986244559" cy="465" fill="rgb(202,70,120)" r="2" stroke="rgb(202,70,120)" stroke-opacity="255" /><text font-size="8" x="782.986244559" y="468">59.61</text><line stroke="lightblue" stroke-width="2" x1="766.418835304" x2="778.446911582" y1="480" y2="480" /><circle cx="778.446911582" cy="480" fill="rgb(202,70,120)" r="2" stroke="rgb(202,70,120)" stroke-opacity="255" /><text font-size="8" x="781.446911582" y="483">59.49</text><line stroke="lightblue" stroke-width="2" x1="766.418835304" x2="781.471871107" y1="495.0" y2="495.0" /><line stroke="lightblue" stroke-width="2" x1="781.471871107" x2="793.827427694" y1="495.0" y2="495" /><circle cx="793.827427694" cy="495" fill="rgb(202,70,120)" r="2" stroke="rgb(202,70,120)" stroke-opacity="255" /><text font-size="8" x="796.827427694" y="498">60.67</text><circle cx="781.471871107" cy="495.0" fill="rgb(202,70,120)" r="2" stroke="rgb(202,70,120)" stroke-opacity="255" /><circle cx="766.418835304" cy="480.0" fill="rgb(202,70,120)" r="2" stroke="rgb(202,70,120)" stroke-opacity="255" /><text font-size="6" x="769.418835304" y="480.0">58.57</text><line stroke="lightblue" stroke-width="2" x1="749.993639306" x2="763.729564909" y1="510.0" y2="510.0" /><line stroke="lightblue" stroke-width="2" x1="763.729564909" x2="857.310094407" y1="510.0" y2="510" /><circle cx="857.310094407" cy="510" fill="rgb(202,70,120)" r="2" stroke="rgb(202,70,120)" stroke-opacity="255" /><text font-size="8" x="860.310094407" y="513">65.52</text><circle cx="833.836189674" cy="510.0" fill="rgb(202,70,120)" r="2" stroke="rgb(202,70,120)" stroke-opacity="255" /><circle cx="825.350540013" cy="510.0" fill="rgb(208,77,115)" r="2" stroke="rgb(208,77,115)" stroke-opacity="255" /><circle cx="817.336994131" cy="510.0" fill="rgb(236,120,83)" r="2" stroke="rgb(236,120,83)" stroke-opacity="255" /><circle cx="805.095946937" cy="510.0" fill="rgb(250,156,59)" r="2" stroke="rgb(250,156,59)" stroke-opacity="255" /><circle cx="791.16766174" cy="510.0" fill="rgb(249,154,60)" r="2" stroke="rgb(249,154,60)" stroke-opacity="255" /><circle cx="763.729564909" cy="510.0" fill="rgb(202,70,120)" r="2" stroke="rgb(202,70,120)" stroke-opacity="255" /><circle cx="749.993639306" cy="472.5" fill="rgb(163,29,153)" r="2" stroke="rgb(163,29,153)" stroke-opacity="255" /><text font-size="6" x="752.993639306" y="472.5">57.32</text><circle cx="734.617168757" cy="472.5" fill="rgb(185,51,136)" r="2" stroke="rgb(185,51,136)" stroke-opacity="255" /><circle cx="719.286886821" cy="472.5" fill="rgb(94,0,165)" r="2" stroke="rgb(94,0,165)" stroke-opacity="255" /><circle cx="706.102270903" cy="472.5" fill="rgb(209,79,113)" r="2" stroke="rgb(209,79,113)" stroke-opacity="255" /><circle cx="686.415586353" cy="472.5" fill="rgb(252,203,37)" r="2" stroke="rgb(252,203,37)" stroke-opacity="255" /><circle cx="681.281926148" cy="472.5" fill="rgb(252,201,38)" r="2" stroke="rgb(252,201,38)" stroke-opacity="255" /><circle cx="673.470520118" cy="472.5" fill="rgb(251,162,56)" r="2" stroke="rgb(251,162,56)" stroke-opacity="255" /><circle cx="657.49352828" cy="420.0" fill="rgb(202,70,120)" r="2" stroke="rgb(202,70,120)" stroke-opacity="255" /><text font-size="6" x="660.49352828" y="420.0">50.25</text><circle cx="631.763070349" cy="360.0" fill="rgb(202,70,120)" r="2" stroke="rgb(202,70,120)" stroke-opacity="255" /><text font-size="6" x="634.763070349" y="360.0">48.28</text><circle cx="617.868960985" cy="360.0" fill="rgb(200,68,122)" r="2" stroke="rgb(200,68,122)" stroke-opacity="255" /><circle cx="603.973694944" cy="360.0" fill="rgb(198,65,124)" r="2" stroke="rgb(198,65,124)" stroke-opacity="255" /><circle cx="585.320607274" cy="360.0" fill="rgb(218,90,104)" r="2" stroke="rgb(218,90,104)" stroke-opacity="255" /><circle cx="566.666610411" cy="360.0" fill="rgb(210,80,112)" r="2" stroke="rgb(210,80,112)" stroke-opacity="255" /><circle cx="553.421888365" cy="360.0" fill="rgb(199,66,123)" r="2" stroke="rgb(199,66,123)" stroke-opacity="255" /><circle cx="539.541714832" cy="360.0" fill="rgb(202,70,120)" r="2" stroke="rgb(202,70,120)" stroke-opacity="255" /><circle cx="508.450459929" cy="360.0" fill="rgb(204,72,118)" r="2" stroke="rgb(204,72,118)" stroke-opacity="255" /><circle cx="485.183610018" cy="360.0" fill="rgb(201,69,121)" r="2" stroke="rgb(201,69,121)" stroke-opacity="255" /><circle cx="457.766940793" cy="360.0" fill="rgb(202,70,120)" r="2" stroke="rgb(202,70,120)" stroke-opacity="255" /><circle cx="437.938515035" cy="360.0" fill="rgb(202,70,120)" r="2" stroke="rgb(202,70,120)" stroke-opacity="255" /><circle cx="416.917471383" cy="360.0" fill="rgb(200,68,122)" r="2" stroke="rgb(200,68,122)" stroke-opacity="255" /><circle cx="394.799014875" cy="360.0" fill="rgb(190,56,131)" r="2" stroke="rgb(190,56,131)" stroke-opacity="255" /><circle cx="357.497491709" cy="360.0" fill="rgb(194,61,128)" r="2" stroke="rgb(194,61,128)" stroke-opacity="255" /><circle cx="333.629489217" cy="360.0" fill="rgb(204,72,118)" r="2" stroke="rgb(204,72,118)" stroke-opacity="255" /><circle cx="316.785758863" cy="360.0" fill="rgb(218,90,104)" r="2" stroke="rgb(218,90,104)" stroke-opacity="255" /><circle cx="295.678308993" cy="360.0" fill="rgb(232,113,88)" r="2" stroke="rgb(232,113,88)" stroke-opacity="255" /><circle cx="263.426330034" cy="360.0" fill="rgb(253,179,46)" r="2" stroke="rgb(253,179,46)" stroke-opacity="255" /><circle cx="213.728691013" cy="297.0703125" fill="rgb(39,5,146)" r="2" stroke="rgb(39,5,146)" stroke-opacity="255" /><text font-size="6" x="216.728691013" y="297.0703125">16.33</text><circle cx="200.132404773" cy="163.53515625" fill="rgb(29,6,141)" r="2" stroke="rgb(29,6,141)" stroke-opacity="255" /><text font-size="6" x="203.132404773" y="163.53515625">15.30</text><circle cx="186.536756156" cy="163.53515625" fill="rgb(114,0,168)" r="2" stroke="rgb(114,0,168)" stroke-opacity="255" /><circle cx="159.343185867" cy="163.53515625" fill="rgb(247,146,65)" r="2" stroke="rgb(247,146,65)" stroke-opacity="255" /><circle cx="130.446320523" cy="163.53515625" fill="rgb(249,217,36)" r="2" stroke="rgb(249,217,36)" stroke-opacity="255" /><circle cx="97.4429455249" cy="163.53515625" fill="rgb(247,224,36)" r="2" stroke="rgb(247,224,36)" stroke-opacity="255" /><circle cx="35.7781598807" cy="89.267578125" fill="rgb(43,5,148)" r="2" stroke="rgb(43,5,148)" stroke-opacity="255" /><text font-size="6" x="38.7781598807" y="89.267578125">2.73</text><circle cx="0.0" cy="89.267578125" fill="rgb(233,114,87)" r="2" stroke="rgb(233,114,87)" stroke-opacity="255" /></svg>